<mxfile host="app.diagrams.net" agent="Mozilla/5.0 (Linux; Android 6.0; Nexus 5 Build/MRA58N) AppleWebKit/537.36 (KHTML, like Gecko) Chrome/136.0.0.0 Mobile Safari/537.36" version="27.1.4">
  <diagram name="Page-1" id="08wepi-wA74p1uIK3FPn">
    <mxGraphModel dx="345" dy="1862" grid="1" gridSize="10" guides="1" tooltips="1" connect="1" arrows="1" fold="1" page="1" pageScale="1" pageWidth="850" pageHeight="1100" math="0" shadow="0">
      <root>
        <mxCell id="0" />
        <mxCell id="1" parent="0" />
        <mxCell id="jt69xl9BNBJo0rxIEq9m-1" value="Actor" style="shape=umlActor;verticalLabelPosition=bottom;verticalAlign=top;html=1;outlineConnect=0;" parent="1" vertex="1">
          <mxGeometry x="30" y="210" width="30" height="60" as="geometry" />
        </mxCell>
        <mxCell id="jt69xl9BNBJo0rxIEq9m-2" value="Load Balancer" style="whiteSpace=wrap;html=1;aspect=fixed;" parent="1" vertex="1">
          <mxGeometry x="220" y="197.5" width="85" height="85" as="geometry" />
        </mxCell>
        <mxCell id="jt69xl9BNBJo0rxIEq9m-3" value="" style="endArrow=classic;html=1;rounded=0;fontSize=12;startSize=8;endSize=8;curved=1;exitX=0.5;exitY=0.5;exitDx=0;exitDy=0;exitPerimeter=0;" parent="1" source="jt69xl9BNBJo0rxIEq9m-1" target="jt69xl9BNBJo0rxIEq9m-2" edge="1">
          <mxGeometry width="50" height="50" relative="1" as="geometry">
            <mxPoint x="220" y="500" as="sourcePoint" />
            <mxPoint x="270" y="450" as="targetPoint" />
          </mxGeometry>
        </mxCell>
        <mxCell id="jt69xl9BNBJo0rxIEq9m-4" value="HTTP Request" style="edgeLabel;html=1;align=center;verticalAlign=middle;resizable=0;points=[];fontSize=12;" parent="jt69xl9BNBJo0rxIEq9m-3" vertex="1" connectable="0">
          <mxGeometry x="-0.0877" y="1" relative="1" as="geometry">
            <mxPoint as="offset" />
          </mxGeometry>
        </mxCell>
        <mxCell id="jt69xl9BNBJo0rxIEq9m-5" value="Server 1" style="whiteSpace=wrap;html=1;aspect=fixed;" parent="1" vertex="1">
          <mxGeometry x="312" y="50" width="80" height="80" as="geometry" />
        </mxCell>
        <mxCell id="jt69xl9BNBJo0rxIEq9m-6" value="Server 2" style="whiteSpace=wrap;html=1;aspect=fixed;" parent="1" vertex="1">
          <mxGeometry x="420" y="50" width="80" height="80" as="geometry" />
        </mxCell>
        <mxCell id="jt69xl9BNBJo0rxIEq9m-7" value="Server 3" style="whiteSpace=wrap;html=1;aspect=fixed;" parent="1" vertex="1">
          <mxGeometry x="530" y="50" width="80" height="80" as="geometry" />
        </mxCell>
        <mxCell id="jt69xl9BNBJo0rxIEq9m-8" value="" style="endArrow=none;html=1;rounded=0;fontSize=12;startSize=8;endSize=8;entryX=0.5;entryY=1;entryDx=0;entryDy=0;edgeStyle=orthogonalEdgeStyle;exitX=1;exitY=0.5;exitDx=0;exitDy=0;" parent="1" source="jt69xl9BNBJo0rxIEq9m-2" target="jt69xl9BNBJo0rxIEq9m-5" edge="1">
          <mxGeometry width="50" height="50" relative="1" as="geometry">
            <mxPoint x="350" y="240" as="sourcePoint" />
            <mxPoint x="400" y="170" as="targetPoint" />
            <Array as="points">
              <mxPoint x="305" y="220" />
              <mxPoint x="352" y="220" />
            </Array>
          </mxGeometry>
        </mxCell>
        <mxCell id="jt69xl9BNBJo0rxIEq9m-9" value="" style="endArrow=none;html=1;rounded=0;fontSize=12;startSize=8;endSize=8;entryX=0.5;entryY=1;entryDx=0;entryDy=0;edgeStyle=orthogonalEdgeStyle;exitX=1;exitY=0.25;exitDx=0;exitDy=0;" parent="1" target="jt69xl9BNBJo0rxIEq9m-7" edge="1">
          <mxGeometry width="50" height="50" relative="1" as="geometry">
            <mxPoint x="305" y="258.75" as="sourcePoint" />
            <mxPoint x="626" y="170" as="targetPoint" />
          </mxGeometry>
        </mxCell>
        <mxCell id="jt69xl9BNBJo0rxIEq9m-10" value="Server N" style="whiteSpace=wrap;html=1;aspect=fixed;" parent="1" vertex="1">
          <mxGeometry x="640" y="50" width="80" height="80" as="geometry" />
        </mxCell>
        <mxCell id="jt69xl9BNBJo0rxIEq9m-11" value="" style="endArrow=none;html=1;rounded=0;fontSize=12;startSize=8;endSize=8;entryX=0.5;entryY=1;entryDx=0;entryDy=0;edgeStyle=orthogonalEdgeStyle;exitX=1.005;exitY=0.925;exitDx=0;exitDy=0;exitPerimeter=0;" parent="1" source="jt69xl9BNBJo0rxIEq9m-2" edge="1">
          <mxGeometry width="50" height="50" relative="1" as="geometry">
            <mxPoint x="241.5" y="269.9949999999999" as="sourcePoint" />
            <mxPoint x="677.5" y="128.97" as="targetPoint" />
            <Array as="points">
              <mxPoint x="305" y="270" />
              <mxPoint x="678" y="270" />
              <mxPoint x="678" y="129" />
            </Array>
          </mxGeometry>
        </mxCell>
        <mxCell id="jt69xl9BNBJo0rxIEq9m-12" value="" style="endArrow=none;html=1;rounded=0;fontSize=12;startSize=8;endSize=8;entryX=0.5;entryY=1;entryDx=0;entryDy=0;exitX=0.997;exitY=0.576;exitDx=0;exitDy=0;exitPerimeter=0;edgeStyle=orthogonalEdgeStyle;" parent="1" source="jt69xl9BNBJo0rxIEq9m-2" edge="1">
          <mxGeometry width="50" height="50" relative="1" as="geometry">
            <mxPoint x="300.0049999999999" y="245.77999999999997" as="sourcePoint" />
            <mxPoint x="462.51" y="130" as="targetPoint" />
          </mxGeometry>
        </mxCell>
        <mxCell id="jt69xl9BNBJo0rxIEq9m-13" value="Redis (Master)" style="shape=datastore;whiteSpace=wrap;html=1;" parent="1" vertex="1">
          <mxGeometry x="325" y="-170" width="60" height="80" as="geometry" />
        </mxCell>
        <mxCell id="jt69xl9BNBJo0rxIEq9m-14" value="Redis&lt;div&gt;(Replica)&lt;/div&gt;" style="shape=datastore;whiteSpace=wrap;html=1;" parent="1" vertex="1">
          <mxGeometry x="453" y="-170" width="60" height="80" as="geometry" />
        </mxCell>
        <mxCell id="jt69xl9BNBJo0rxIEq9m-15" value="" style="endArrow=classic;html=1;rounded=0;fontSize=12;startSize=8;endSize=8;curved=1;" parent="1" edge="1">
          <mxGeometry width="50" height="50" relative="1" as="geometry">
            <mxPoint x="386" y="-130.41999999999996" as="sourcePoint" />
            <mxPoint x="452" y="-130.41999999999996" as="targetPoint" />
            <Array as="points">
              <mxPoint x="421" y="-130.41999999999996" />
            </Array>
          </mxGeometry>
        </mxCell>
        <mxCell id="jt69xl9BNBJo0rxIEq9m-16" value="" style="endArrow=classic;startArrow=classic;html=1;rounded=0;fontSize=12;startSize=8;endSize=8;curved=1;" parent="1" edge="1">
          <mxGeometry width="50" height="50" relative="1" as="geometry">
            <mxPoint x="355" y="50" as="sourcePoint" />
            <mxPoint x="355" y="-90" as="targetPoint" />
          </mxGeometry>
        </mxCell>
        <mxCell id="jt69xl9BNBJo0rxIEq9m-17" value="READ &amp;amp; WRITE" style="edgeLabel;html=1;align=center;verticalAlign=middle;resizable=0;points=[];fontSize=12;" parent="jt69xl9BNBJo0rxIEq9m-16" vertex="1" connectable="0">
          <mxGeometry x="0.0286" relative="1" as="geometry">
            <mxPoint x="-3" y="-18" as="offset" />
          </mxGeometry>
        </mxCell>
        <mxCell id="jt69xl9BNBJo0rxIEq9m-18" value="" style="endArrow=classic;startArrow=classic;html=1;rounded=0;fontSize=12;startSize=8;endSize=8;curved=1;exitX=0.338;exitY=-0.049;exitDx=0;exitDy=0;exitPerimeter=0;entryX=0.5;entryY=1;entryDx=0;entryDy=0;" parent="1" target="jt69xl9BNBJo0rxIEq9m-13" edge="1">
          <mxGeometry width="50" height="50" relative="1" as="geometry">
            <mxPoint x="462.03999999999996" y="49.9999999999997" as="sourcePoint" />
            <mxPoint x="360" y="-80" as="targetPoint" />
            <Array as="points">
              <mxPoint x="460" y="-20" />
            </Array>
          </mxGeometry>
        </mxCell>
        <mxCell id="jt69xl9BNBJo0rxIEq9m-19" value="READ &amp;amp; WRITE" style="edgeLabel;html=1;align=center;verticalAlign=middle;resizable=0;points=[];fontSize=12;" parent="jt69xl9BNBJo0rxIEq9m-18" vertex="1" connectable="0">
          <mxGeometry x="0.0403" y="7" relative="1" as="geometry">
            <mxPoint x="12" y="11" as="offset" />
          </mxGeometry>
        </mxCell>
        <mxCell id="jt69xl9BNBJo0rxIEq9m-20" value="" style="endArrow=classic;startArrow=classic;html=1;rounded=0;fontSize=12;startSize=8;endSize=8;curved=1;exitX=0.338;exitY=-0.049;exitDx=0;exitDy=0;exitPerimeter=0;entryX=0.658;entryY=0.982;entryDx=0;entryDy=0;entryPerimeter=0;" parent="1" target="jt69xl9BNBJo0rxIEq9m-13" edge="1">
          <mxGeometry width="50" height="50" relative="1" as="geometry">
            <mxPoint x="561.04" y="49.9999999999997" as="sourcePoint" />
            <mxPoint x="460" y="-87" as="targetPoint" />
            <Array as="points">
              <mxPoint x="559" y="-20" />
            </Array>
          </mxGeometry>
        </mxCell>
        <mxCell id="jt69xl9BNBJo0rxIEq9m-21" value="READ &amp;amp; WRITE" style="edgeLabel;html=1;align=center;verticalAlign=middle;resizable=0;points=[];fontSize=12;" parent="jt69xl9BNBJo0rxIEq9m-20" vertex="1" connectable="0">
          <mxGeometry x="-0.0461" y="9" relative="1" as="geometry">
            <mxPoint x="51" y="39" as="offset" />
          </mxGeometry>
        </mxCell>
        <mxCell id="jt69xl9BNBJo0rxIEq9m-22" value="" style="endArrow=classic;startArrow=classic;html=1;rounded=0;fontSize=12;startSize=8;endSize=8;curved=1;exitX=0.338;exitY=-0.049;exitDx=0;exitDy=0;exitPerimeter=0;entryX=0.85;entryY=0.95;entryDx=0;entryDy=0;entryPerimeter=0;" parent="1" target="jt69xl9BNBJo0rxIEq9m-13" edge="1">
          <mxGeometry width="50" height="50" relative="1" as="geometry">
            <mxPoint x="677.04" y="50.9999999999997" as="sourcePoint" />
            <mxPoint x="480" y="-90" as="targetPoint" />
            <Array as="points">
              <mxPoint x="675" y="-19" />
            </Array>
          </mxGeometry>
        </mxCell>
        <mxCell id="jt69xl9BNBJo0rxIEq9m-23" value="READ &amp;amp; WRITE" style="edgeLabel;html=1;align=center;verticalAlign=middle;resizable=0;points=[];fontSize=12;" parent="jt69xl9BNBJo0rxIEq9m-22" vertex="1" connectable="0">
          <mxGeometry x="-0.7584" y="23" relative="1" as="geometry">
            <mxPoint x="19" y="18" as="offset" />
          </mxGeometry>
        </mxCell>
        <mxCell id="jt69xl9BNBJo0rxIEq9m-25" value="&lt;font style=&quot;font-size: 20px;&quot;&gt;Hit Counter System Design&lt;/font&gt;" style="text;html=1;align=center;verticalAlign=middle;whiteSpace=wrap;rounded=0;" parent="1" vertex="1">
          <mxGeometry y="-370" width="340" height="60" as="geometry" />
        </mxCell>
      </root>
    </mxGraphModel>
  </diagram>
</mxfile>
